<?xml version="1.0" standalone="no"?>
<!DOCTYPE svg PUBLIC "-//W3C//DTD SVG 20010904//EN"
 "http://www.w3.org/TR/2001/REC-SVG-20010904/DTD/svg10.dtd">
<svg version="1.0" xmlns="http://www.w3.org/2000/svg"
 width="289.000000pt" height="245.000000pt" viewBox="0 0 289.000000 245.000000"
 preserveAspectRatio="xMidYMid meet">

<g transform="translate(0.000000,245.000000) scale(0.100000,-0.100000)"
fill="#000000" stroke="none">
<path d="M0 1225 l0 -1225 1440 0 1440 0 0 1225 0 1225 -1440 0 -1440 0 0
-1225z m1263 1013 c-5 -29 -14 -62 -18 -72 -7 -16 -2 -15 28 8 40 30 101 49
131 39 16 -4 14 -8 -14 -20 -36 -15 -104 -63 -98 -69 2 -2 26 8 53 21 26 14
64 25 84 25 l36 0 -40 -26 c-22 -15 -43 -30 -47 -33 -4 -3 15 -7 43 -8 71 -2
148 -42 209 -111 53 -60 70 -61 20 -1 -16 20 -27 39 -23 42 8 9 65 -82 58 -93
-3 -5 8 -37 25 -70 17 -33 48 -112 68 -174 l38 -114 -65 -5 c-36 -3 -75 -8
-86 -12 -18 -5 -21 1 -32 54 -17 93 -63 145 -126 143 -85 -2 -122 -139 -67
-246 l18 -36 -43 0 c-24 0 -56 -5 -71 -10 -25 -10 -26 -9 -19 12 4 13 9 61 12
108 9 148 -41 296 -116 345 -99 66 -221 7 -265 -127 -21 -67 -21 -199 1 -269
23 -72 24 -69 -21 -84 -21 -8 -34 -9 -28 -3 6 6 5 25 -5 56 -22 70 -22 215 1
282 28 82 96 178 177 250 81 72 139 155 159 225 18 66 37 44 23 -27z m187
-108 c0 -5 -8 -10 -17 -10 -15 0 -16 2 -3 10 19 12 20 12 20 0z m119 -405 c71
-60 71 -227 0 -265 -19 -10 -20 -10 -10 9 31 56 -3 151 -54 151 -29 0 -45 -26
-46 -77 l-1 -38 -13 30 c-8 17 -14 54 -15 83 -1 114 68 166 139 107z m-375
-87 c23 -31 46 -96 46 -128 0 -8 -8 -1 -16 17 -27 54 -72 55 -94 2 -11 -27
-10 -52 6 -94 5 -13 2 -16 -17 -13 -67 9 -81 215 -17 241 36 15 68 6 92 -25z
m683 -96 c21 -11 47 -30 58 -42 l20 -23 -26 5 c-27 5 -27 5 -13 -28 18 -43 18
-58 -1 -50 -12 4 -15 -4 -16 -37 l-1 -42 -12 40 -13 40 -20 -45 c-32 -70 -82
-112 -145 -121 -29 -4 -68 -8 -85 -8 l-33 -1 48 48 c26 27 54 59 64 73 13 19
19 22 29 12 16 -16 33 -17 23 -2 -12 21 -73 40 -92 30 -14 -9 -12 -10 11 -11
l28 0 -18 -30 c-10 -17 -35 -47 -55 -67 -35 -34 -44 -38 -106 -41 -37 -2 -78
1 -92 6 -19 7 -36 4 -75 -14 -73 -34 -156 -33 -208 3 -27 19 -37 32 -34 45 3
10 2 18 -1 18 -13 0 -112 -73 -112 -82 0 -5 18 4 39 21 46 36 55 38 74 12 7
-11 32 -31 55 -43 l41 -24 -97 -17 c-53 -9 -107 -20 -119 -23 -18 -5 -28 2
-54 42 -28 44 -31 46 -26 19 l5 -30 -19 24 c-19 23 -23 37 -20 76 1 14 -5 9
-18 -15 -11 -19 -21 -28 -21 -20 -1 8 -4 39 -6 68 -5 51 -3 55 30 87 64 60
152 71 215 26 45 -32 157 -30 207 4 55 37 107 48 162 35 117 -29 150 -20 178
45 13 32 28 41 99 59 36 9 113 -2 152 -22z m558 -176 c96 -44 155 -119 155
-198 0 -46 -24 -113 -55 -154 -17 -22 -21 -35 -14 -40 17 -10 59 -106 59 -136
0 -14 5 -28 11 -30 6 -2 -2 -29 -21 -65 -33 -64 -80 -106 -134 -119 -25 -6
-28 -4 -23 10 4 9 3 14 -2 11 -6 -3 -9 -14 -8 -25 1 -14 6 -18 19 -14 38 12
71 -137 36 -159 -14 -9 -21 -8 -35 5 -14 14 -15 22 -5 43 11 24 10 26 -10 23
-19 -2 -23 1 -20 22 1 13 7 27 13 30 13 9 -12 57 -40 77 -12 8 -19 19 -16 24
4 5 1 9 -4 9 -6 0 -11 -4 -11 -10 0 -5 -7 -7 -15 -4 -8 4 -15 1 -15 -5 0 -6
-5 -10 -11 -9 -19 5 -21 -18 -4 -36 9 -8 20 -28 26 -44 6 -17 17 -28 30 -29
16 -2 19 2 13 15 -4 9 -7 25 -8 34 0 9 -5 16 -11 15 -5 -1 -9 4 -7 11 1 8 -1
11 -6 8 -5 -3 -18 1 -28 9 -18 13 -17 13 9 11 30 -4 70 -34 61 -47 -3 -5 2 -9
10 -9 9 0 16 -5 16 -11 0 -5 -4 -7 -10 -4 -6 3 -7 -1 -4 -10 8 -19 -15 -48
-32 -41 -8 3 -11 0 -8 -9 4 -10 0 -12 -15 -8 -14 4 -21 13 -21 30 0 28 -28 93
-40 93 -4 0 -13 -7 -20 -15 -20 -24 -31 -17 -28 18 2 26 -3 38 -32 64 -32 29
-36 30 -52 16 -16 -14 -18 -14 -27 11 -12 29 -23 33 -40 12 -9 -11 -9 -15 1
-19 7 -2 11 -7 8 -10 -3 -3 -25 9 -49 28 -55 44 -91 49 -331 49 -269 -1 -508
-40 -803 -131 l-59 -18 -2 -53 c-6 -94 -77 -167 -194 -197 -73 -19 -119 -14
-177 18 -73 41 -113 138 -99 244 l6 52 -54 53 c-81 79 -97 152 -54 243 37 81
120 138 219 151 60 8 142 -17 200 -61 l46 -35 143 36 c300 75 648 120 992 129
l200 4 12 29 c16 39 71 100 105 118 76 39 179 39 264 0z m-345 -648 c0 -19 -2
-20 -10 -8 -13 19 -13 30 0 30 6 0 10 -10 10 -22z m87 -30 c16 -15 23 -33 23
-60 0 -39 15 -49 38 -26 9 9 12 8 12 -4 0 -9 -10 -19 -22 -23 -20 -6 -20 -8
-5 -12 19 -5 21 -14 7 -31 -7 -9 -7 -9 2 -2 17 14 35 13 21 -1 -6 -6 -9 -18
-6 -25 3 -8 -1 -14 -9 -14 -8 0 -25 -9 -37 -19 -21 -18 -21 -20 -4 -30 17 -10
17 -12 -2 -26 -18 -14 -21 -14 -32 2 -10 13 -10 19 0 26 8 5 5 7 -8 4 -62 -15
-75 -17 -75 -9 0 5 -19 15 -42 22 -48 14 -104 60 -73 60 11 0 15 5 11 15 -6
17 29 22 39 5 8 -14 35 -13 35 1 0 7 -8 18 -17 25 -11 8 -13 13 -5 14 10 0 10
4 0 20 -11 18 -9 24 19 50 18 17 37 30 44 30 6 0 0 -10 -15 -21 -32 -25 -29
-33 8 -20 23 9 26 8 26 -12 0 -18 -2 -19 -10 -7 -7 11 -10 11 -10 2 0 -7 13
-17 28 -23 16 -5 35 -23 43 -38 11 -23 18 -27 34 -21 19 8 19 9 -1 9 -21 1
-44 31 -24 31 6 0 10 -4 10 -10 0 -5 5 -10 10 -10 6 0 10 6 10 13 0 15 -41 37
-67 37 -13 0 -14 8 -9 42 11 66 17 70 53 36z m-162 -38 c-11 -17 -14 -50 -5
-50 4 0 7 -11 6 -23 -1 -18 -6 -23 -20 -19 -19 5 -19 5 0 20 18 14 18 14 1 8
-10 -3 -28 -1 -40 6 -20 10 -21 10 -9 -5 19 -22 -1 -57 -32 -57 -35 0 -52 25
-37 56 9 22 17 25 49 23 20 -2 43 -7 51 -13 10 -8 12 -6 9 9 -2 11 3 28 12 38
16 19 25 23 15 7z m301 -150 c15 0 19 -15 7 -23 -5 -2 -2 -2 6 0 7 2 19 -2 27
-8 18 -15 -18 -54 -78 -85 -45 -23 -98 -29 -98 -11 0 17 36 44 54 41 11 -1 27
1 35 6 11 6 12 10 4 11 -7 1 -18 2 -23 3 -10 1 -30 25 -30 36 0 3 10 7 22 7
16 2 19 0 10 -6 -11 -7 -10 -9 2 -14 17 -7 20 4 17 58 l-1 30 16 -22 c9 -13
23 -23 30 -23z m67 6 c3 -8 0 -19 -7 -25 -11 -9 -13 -6 -13 14 0 27 12 34 20
11z m-221 -110 c4 -6 8 -18 8 -26 -1 -10 -9 -5 -26 14 -27 31 -43 30 -23 -2
17 -27 -1 -49 -47 -58 -41 -8 -77 18 -72 50 4 25 60 35 86 14 13 -11 15 -11
10 3 -10 25 11 40 36 27 12 -6 24 -16 28 -22z m-1492 -146 c0 -6 -7 -13 -15
-16 -11 -5 -13 -10 -5 -19 5 -6 9 -41 7 -76 -1 -49 -5 -64 -17 -64 -11 0 -16
14 -18 55 -4 65 13 130 33 130 8 0 15 -5 15 -10z m1430 0 c0 -5 -4 -10 -10
-10 -5 0 -10 5 -10 10 0 6 5 10 10 10 6 0 10 -4 10 -10z m-1600 -45 c0 -9 -9
-15 -23 -15 -29 0 -47 -18 -47 -45 0 -27 18 -45 47 -45 14 0 23 -6 23 -15 0
-22 -52 -19 -78 5 -30 28 -29 74 3 105 27 28 75 34 75 10z m50 -45 l0 -60 30
0 c20 0 30 -5 30 -15 0 -11 -12 -15 -45 -15 l-45 0 0 75 c0 60 3 75 15 75 12
0 15 -13 15 -60z m190 13 l30 -47 0 48 c0 33 4 46 12 44 8 -3 13 -30 15 -76 2
-88 -11 -93 -56 -25 l-31 48 0 -47 c0 -36 -4 -48 -15 -48 -12 0 -15 14 -15 68
0 99 14 107 60 35z m110 -18 c0 -36 0 -68 1 -72 0 -5 -7 -9 -15 -11 -13 -3
-16 8 -16 66 0 38 3 72 7 75 17 17 23 2 23 -58z m120 50 c0 -9 -9 -15 -25 -15
-18 0 -26 -7 -31 -27 -9 -34 6 -57 40 -61 34 -4 35 -32 0 -32 -77 0 -108 90
-46 136 24 18 62 18 62 -1z m120 -40 c33 -98 33 -95 12 -95 -11 0 -22 9 -25
20 -3 12 -14 20 -27 20 -13 0 -24 -8 -27 -20 -6 -22 -33 -28 -33 -7 0 6 10 40
22 75 29 80 53 82 78 7z m164 7 c5 -23 12 -42 16 -42 4 0 13 20 19 45 7 28 17
45 26 45 19 0 19 -3 -9 -80 -13 -36 -30 -66 -38 -68 -9 -2 -21 20 -36 66 -27
82 -27 84 -5 80 12 -2 21 -18 27 -46z m176 33 c0 -10 -10 -15 -30 -15 -20 0
-30 -5 -30 -15 0 -9 9 -15 25 -15 14 0 25 -6 25 -13 0 -8 -10 -13 -22 -13 -14
1 -24 -6 -26 -16 -3 -14 3 -18 27 -18 21 0 31 -5 31 -16 0 -12 -9 -14 -42 -12
l-43 3 -3 73 -3 72 46 0 c33 0 45 -4 45 -15z m120 0 c0 -8 -9 -15 -20 -15 -18
0 -20 -7 -20 -60 0 -47 -3 -60 -15 -60 -12 0 -15 13 -15 60 0 53 -2 60 -20 60
-11 0 -20 7 -20 15 0 12 13 15 55 15 42 0 55 -3 55 -15z m100 1 c0 -8 -11 -16
-25 -18 -32 -4 -37 -22 -7 -26 12 -2 22 -9 22 -17 0 -8 -7 -11 -20 -8 -15 4
-20 0 -20 -16 0 -17 6 -21 31 -21 20 0 29 -4 27 -12 -3 -8 -22 -13 -49 -13
l-44 0 -1 65 c0 36 1 68 3 73 2 4 22 7 44 7 27 0 39 -4 39 -14z m98 8 c16 -5
22 -14 22 -35 0 -16 -5 -29 -11 -29 -5 0 -3 -10 5 -22 9 -12 16 -30 16 -40 0
-29 -25 -21 -37 12 -6 16 -16 30 -22 30 -6 0 -11 -13 -11 -30 0 -20 -5 -30
-15 -30 -12 0 -15 15 -15 75 0 81 4 86 68 69z m82 -69 c0 -60 -3 -75 -15 -75
-12 0 -15 15 -15 75 0 60 3 75 15 75 12 0 15 -15 15 -75z m86 30 c14 -25 27
-45 29 -45 2 0 3 19 2 42 -1 25 3 43 11 45 9 4 12 -15 12 -71 0 -45 -4 -76
-10 -76 -6 0 -24 21 -40 47 l-30 47 0 -47 c0 -35 -4 -47 -15 -47 -12 0 -15 15
-15 75 0 90 15 99 56 30z m176 -13 c9 -32 20 -66 24 -75 4 -13 1 -17 -15 -17
-14 0 -21 6 -21 20 0 28 -50 28 -57 0 -5 -19 -33 -29 -33 -12 0 11 37 119 45
132 3 6 14 10 23 10 12 0 22 -17 34 -58z m119 48 c20 -11 26 -45 9 -55 -6 -4
-4 -17 5 -35 19 -36 19 -50 1 -50 -7 0 -19 14 -26 30 -16 40 -40 39 -40 -1 0
-20 -4 -29 -12 -27 -9 3 -14 30 -16 76 l-3 72 31 0 c17 0 40 -5 51 -10z m79
-65 c0 -60 -3 -75 -15 -75 -12 0 -15 15 -15 75 0 60 3 75 15 75 12 0 15 -15
15 -75z m121 15 c10 -30 19 -62 19 -72 0 -25 -26 -23 -33 2 -3 14 -14 20 -31
20 -19 0 -26 -5 -26 -20 0 -11 -7 -20 -15 -20 -19 0 -19 15 1 76 31 93 56 97
85 14z"/>
<path d="M1462 1914 c-19 -13 -52 -63 -52 -78 0 -2 16 12 35 31 37 37 60 38
99 4 18 -15 18 -15 7 6 -10 20 -48 53 -61 53 -3 0 -16 -7 -28 -16z"/>
<path d="M1335 1438 c-35 -13 -105 -59 -124 -82 -23 -28 -1 -17 42 19 47 41
68 47 31 9 -24 -23 -25 -27 -10 -42 8 -10 38 -26 65 -36 45 -16 52 -16 80 -2
36 19 61 53 61 83 0 26 -7 31 -62 43 -41 9 -41 9 11 4 30 -3 67 -12 83 -20 17
-9 32 -13 35 -10 3 3 -14 15 -38 26 -48 21 -125 25 -174 8z m32 -14 c-3 -3
-12 -4 -19 -1 -8 3 -5 6 6 6 11 1 17 -2 13 -5z"/>
<path d="M2042 1138 c-16 -16 -15 -33 2 -47 21 -18 50 14 36 40 -12 22 -21 24
-38 7z"/>
<path d="M1502 1132 c-22 -3 -23 -7 -18 -50 3 -26 8 -78 12 -115 6 -66 7 -68
33 -65 25 3 26 5 23 56 -3 33 0 52 7 52 7 0 11 -21 11 -50 0 -49 0 -50 31 -50
l32 0 -7 46 c-3 26 -6 57 -6 70 0 31 -28 57 -57 51 -20 -4 -23 0 -23 24 0 32
-6 37 -38 31z"/>
<path d="M2116 1103 c-3 -21 -6 -65 -6 -99 0 -50 4 -64 23 -82 13 -12 28 -22
34 -22 18 0 22 63 5 80 -14 13 -14 15 1 18 12 3 17 14 17 38 0 19 -4 34 -10
34 -5 0 -10 16 -10 35 0 30 -3 35 -24 35 -19 0 -24 -6 -30 -37z"/>
<path d="M1693 1078 c-48 -23 -55 -121 -10 -153 80 -56 163 70 92 140 -26 27
-47 30 -82 13z m50 -72 c6 -16 -16 -40 -26 -29 -4 3 -7 15 -7 25 0 21 25 24
33 4z"/>
<path d="M1850 1070 c-16 -16 -20 -33 -20 -85 0 -63 1 -65 25 -65 23 0 25 4
25 45 0 31 5 47 15 51 9 4 15 19 15 40 0 27 -4 34 -20 34 -11 0 -29 -9 -40
-20z"/>
<path d="M1943 1054 c-9 -15 -19 -53 -21 -85 l-4 -59 30 0 c30 0 31 1 34 53 2
35 7 51 16 50 8 -2 12 9 12 32 0 31 -3 35 -25 35 -15 0 -31 -10 -42 -26z"/>
<path d="M2026 1039 c-3 -17 -6 -56 -6 -86 0 -53 0 -54 28 -51 27 3 27 4 30
86 3 81 2 82 -21 82 -19 0 -26 -7 -31 -31z"/>
<path d="M973 1046 c-101 -45 -70 -226 40 -229 63 -2 107 45 107 112 0 25 -3
27 -30 23 -16 -2 -30 -10 -30 -17 0 -7 -8 -23 -18 -35 -15 -19 -22 -21 -39
-11 -25 13 -37 43 -28 70 8 27 34 34 61 16 32 -20 80 -4 65 23 -27 50 -79 69
-128 48z"/>
<path d="M1345 1035 c-62 -61 1 -179 77 -144 26 11 48 46 48 76 0 12 -6 14
-27 8 -16 -3 -29 -11 -31 -16 -6 -14 -29 -11 -35 6 -8 19 11 30 49 26 43 -3
49 11 17 43 -32 33 -67 33 -98 1z"/>
<path d="M2253 1050 c-29 -12 -43 -40 -43 -89 0 -31 6 -44 26 -60 36 -28 60
-26 95 8 32 33 37 67 14 110 -20 40 -47 49 -92 31z m47 -80 c0 -11 -6 -20 -14
-20 -18 0 -29 16 -21 30 11 18 35 11 35 -10z"/>
<path d="M1169 1011 c-31 -25 -34 -98 -5 -130 26 -29 73 -28 79 2 4 22 4 22 6
0 1 -18 5 -20 29 -14 15 4 26 12 25 17 0 5 -4 30 -7 55 -11 80 -73 114 -127
70z m71 -77 c0 -16 -26 -19 -35 -4 -4 6 -4 18 -1 27 5 12 9 13 21 3 8 -7 15
-19 15 -26z"/>
<path d="M2432 1017 c-14 -6 -26 -23 -29 -40 -3 -16 -14 -34 -24 -40 -20 -12
-26 -61 -9 -72 19 -12 68 24 75 54 3 16 12 32 19 34 8 3 15 19 18 36 5 34 -13
44 -50 28z"/>
<path d="M632 961 c-20 -12 -10 -46 13 -46 14 0 20 7 20 24 0 27 -13 35 -33
22z"/>
<path d="M769 909 c-16 -16 -20 -29 -15 -50 3 -17 1 -38 -5 -47 -7 -12 -7 -25
0 -45 9 -24 14 -26 31 -17 28 15 43 48 37 80 -3 15 -1 32 4 37 12 12 -5 63
-21 63 -5 0 -19 -9 -31 -21z"/>
<path d="M502 898 c-7 -7 -12 -18 -12 -25 0 -11 -5 -11 -21 -3 -30 17 -69 -11
-69 -50 0 -32 54 -173 68 -178 5 -1 18 1 29 5 l21 8 -23 58 c-32 79 -38 97
-28 97 4 0 21 -33 37 -74 28 -70 31 -73 53 -63 29 13 29 19 -2 95 -27 68 -29
72 -17 72 4 0 20 -33 36 -74 24 -63 31 -73 48 -68 11 2 22 11 25 19 5 14 -49
156 -69 181 -13 15 -60 16 -76 0z"/>
<path d="M652 891 c-12 -7 -10 -22 9 -82 13 -41 24 -75 25 -77 1 -1 13 2 27 7
l26 10 -25 76 c-25 73 -35 84 -62 66z"/>
<path d="M2063 864 c-19 -8 -17 -94 2 -94 8 0 15 9 15 20 0 11 3 19 8 19 25
-4 33 3 30 29 -3 27 -26 38 -55 26z"/>
<path d="M2132 829 c3 -47 31 -75 48 -49 6 10 10 11 10 3 0 -20 48 -15 58 5 5
9 9 32 10 50 2 27 -1 33 -15 30 -12 -2 -18 -13 -19 -31 -2 -42 -14 -45 -14 -4
0 26 -4 37 -15 37 -10 0 -15 -11 -15 -35 0 -19 -4 -35 -10 -35 -5 0 -10 16
-10 35 0 25 -4 35 -16 35 -12 0 -14 -9 -12 -41z"/>
<path d="M2283 858 c-14 -23 -12 -88 2 -88 19 0 29 19 31 62 2 39 -16 52 -33
26z"/>
<path d="M2465 814 c-20 -15 -12 -17 19 -5 11 4 15 10 10 13 -5 4 -18 0 -29
-8z"/>
<path d="M2480 790 c-8 -5 -22 -7 -31 -5 -9 3 -22 -3 -30 -12 -7 -10 -10 -15
-5 -11 5 4 16 -2 26 -14 17 -21 50 -20 50 2 0 6 -4 8 -10 5 -5 -3 -10 1 -10 9
0 21 20 20 35 0 10 -15 12 -14 10 6 -2 27 -13 34 -35 20z"/>
<path d="M2371 724 c-22 -27 -20 -47 3 -38 7 3 21 -2 29 -11 15 -14 17 -13 31
14 15 28 14 30 -9 45 -31 20 -30 21 -54 -10z m42 2 c4 -10 1 -13 -9 -9 -7 3
-14 9 -14 14 0 14 17 10 23 -5z"/>
<path d="M2225 640 c3 -5 8 -10 11 -10 2 0 4 5 4 10 0 6 -5 10 -11 10 -5 0 -7
-4 -4 -10z"/>
<path d="M2417 571 c-4 -17 -3 -21 5 -13 5 5 8 16 6 23 -3 8 -7 3 -11 -10z"/>
<path d="M2040 611 c0 -5 7 -12 16 -15 8 -3 12 -11 9 -16 -4 -6 -1 -18 7 -27
7 -9 12 -19 10 -22 -2 -3 5 -7 15 -8 15 -2 15 -1 -2 6 -11 5 -16 10 -11 10 5
1 3 7 -3 15 -6 7 -9 20 -5 29 3 10 -2 20 -15 27 -12 6 -21 7 -21 1z"/>
<path d="M2208 503 c6 -2 18 -2 25 0 6 3 1 5 -13 5 -14 0 -19 -2 -12 -5z"/>
<path d="M2290 450 c-9 -6 -10 -10 -3 -10 6 0 15 5 18 10 8 12 4 12 -15 0z"/>
<path d="M1040 161 c0 -12 5 -21 10 -21 6 0 10 6 10 14 0 8 -4 18 -10 21 -5 3
-10 -3 -10 -14z"/>
<path d="M1710 169 c0 -24 23 -21 28 4 2 10 -3 17 -12 17 -10 0 -16 -9 -16
-21z"/>
<path d="M2045 167 c-4 -10 -5 -21 -1 -24 10 -10 18 4 13 24 -4 17 -4 17 -12
0z"/>
<path d="M2160 169 c0 -14 5 -19 17 -17 26 5 29 38 4 38 -15 0 -21 -6 -21 -21z"/>
<path d="M2360 161 c0 -12 5 -21 10 -21 6 0 10 6 10 14 0 8 -4 18 -10 21 -5 3
-10 -3 -10 -14z"/>
</g>
</svg>
